<svg width="32" height="32" viewBox="0 0 32 32" fill="none" xmlns="http://www.w3.org/2000/svg">
<path d="M16.0001 0C15.4823 0 15.0626 0.41975 15.0626 0.9375V6.9625C15.0626 7.48025 15.4823 7.9 16.0001 7.9C16.5178 7.9 16.9376 7.48025 16.9376 6.9625V0.9375C16.9376 0.41975 16.5178 0 16.0001 0Z" fill="black"/>
<path d="M16.0001 24.1001C15.4823 24.1001 15.0626 24.5198 15.0626 25.0376V31.0625C15.0626 31.5803 15.4823 32 16.0001 32C16.5178 32 16.9376 31.5803 16.9376 31.0625V25.0376C16.9376 24.5198 16.5178 24.1001 16.0001 24.1001Z" fill="black"/>
<path d="M12.2932 7.7045L9.28069 2.48669C9.02181 2.03825 8.44844 1.88463 8.00006 2.14356C7.55169 2.40244 7.39806 2.97581 7.65694 3.42419L10.6694 8.642C10.8431 8.94281 11.1582 9.11088 11.4822 9.11088C11.6412 9.11088 11.8024 9.07037 11.9501 8.98512C12.3984 8.72625 12.5521 8.15287 12.2932 7.7045Z" fill="black"/>
<path d="M24.3432 28.5758L21.3307 23.3581C21.0719 22.9096 20.4985 22.756 20.0501 23.0149C19.6017 23.2738 19.4481 23.8472 19.707 24.2956L22.7194 29.5133C22.8931 29.8141 23.2082 29.9821 23.5322 29.9821C23.6913 29.9821 23.8524 29.9416 24.0001 29.8564C24.4484 29.5975 24.6021 29.0241 24.3432 28.5758Z" fill="black"/>
<path d="M8.64213 10.6694L3.42425 7.65688C2.97575 7.39788 2.4025 7.55156 2.14363 8C1.88475 8.44838 2.03838 9.02175 2.48675 9.28063L7.70463 12.2933C7.85225 12.3785 8.01344 12.419 8.1725 12.419C8.4965 12.419 8.81163 12.2509 8.98525 11.9501C9.24413 11.5017 9.0905 10.9283 8.64213 10.6694Z" fill="black"/>
<path d="M29.5133 22.7194L24.2956 19.7069C23.8471 19.4481 23.2738 19.6017 23.0149 20.0501C22.7561 20.4986 22.9097 21.0719 23.3581 21.3307L28.5758 24.3432C28.7235 24.4284 28.8846 24.4689 29.0437 24.4689C29.3677 24.4689 29.6829 24.3008 29.8564 24.0001C30.1153 23.5516 29.9617 22.9782 29.5133 22.7194Z" fill="black"/>
<path d="M6.96256 15.0626H0.9375C0.41975 15.0626 0 15.4824 0 16.0001C0 16.5179 0.41975 16.9376 0.9375 16.9376H6.96256C7.48031 16.9376 7.90006 16.5179 7.90006 16.0001C7.90006 15.4824 7.48031 15.0626 6.96256 15.0626Z" fill="black"/>
<path d="M31.0625 15.0626H25.0376C24.5199 15.0626 24.1001 15.4824 24.1001 16.0001C24.1001 16.5179 24.5199 16.9376 25.0376 16.9376H31.0625C31.5803 16.9376 32 16.5179 32 16.0001C32 15.4824 31.5803 15.0626 31.0625 15.0626Z" fill="black"/>
<path d="M8.98531 20.0501C8.72644 19.6017 8.15319 19.4481 7.70469 19.707L2.48681 22.7195C2.03844 22.9784 1.88481 23.5518 2.14369 24.0001C2.31731 24.3009 2.63244 24.469 2.95644 24.469C3.1155 24.469 3.27669 24.4285 3.42431 24.3433L8.64219 21.3308C9.09056 21.0719 9.24419 20.4985 8.98531 20.0501Z" fill="black"/>
<path d="M29.8564 8.00019C29.5975 7.55175 29.0242 7.39819 28.5757 7.65706L23.358 10.6696C22.9096 10.9284 22.756 11.5017 23.0149 11.9501C23.1885 12.2509 23.5036 12.4191 23.8276 12.4191C23.9866 12.4191 24.1479 12.3786 24.2955 12.2933L29.5132 9.28081C29.9616 9.02194 30.1152 8.44856 29.8564 8.00019Z" fill="black"/>
<path d="M11.9501 23.0149C11.5017 22.7559 10.9282 22.9096 10.6694 23.3581L7.65694 28.5759C7.39806 29.0243 7.55169 29.5976 8.00006 29.8565C8.14769 29.9418 8.30887 29.9823 8.46794 29.9823C8.79194 29.9823 9.10712 29.8141 9.28069 29.5134L12.2932 24.2956C12.5521 23.8472 12.3984 23.2738 11.9501 23.0149Z" fill="black"/>
<path d="M24.0001 2.14375C23.5516 1.88475 22.9782 2.03844 22.7194 2.48687L19.707 7.70456C19.4481 8.15294 19.6017 8.72631 20.0501 8.98519C20.1977 9.07044 20.3589 9.11094 20.518 9.11094C20.842 9.11094 21.1571 8.94281 21.3307 8.64206L24.3432 3.42437C24.6021 2.976 24.4484 2.40262 24.0001 2.14375Z" fill="black"/>
</svg>
