<svg width="24" height="20" viewBox="0 0 24 20" fill="none" xmlns="http://www.w3.org/2000/svg">
<path d="M20.3352 12.9369C19.9412 12.9369 19.6222 12.6179 19.6222 12.2239C19.6222 11.83 19.9412 11.511 20.3352 11.511H23.287C23.681 11.511 24 11.83 24 12.2239C24 12.6179 23.681 12.9369 23.287 12.9369H20.3352ZM0.712976 12.9369C0.318992 12.9369 5.74188e-06 12.6179 5.74188e-06 12.2239C5.74188e-06 11.83 0.318992 11.511 0.712976 11.511H3.66585C4.05984 11.511 4.37882 11.83 4.37882 12.2239C4.37882 12.6179 4.05984 12.9369 3.66585 12.9369H0.712976ZM17.3893 6.83417C17.2603 6.70517 17.1803 6.52718 17.1803 6.33019C17.1803 6.13319 17.2603 5.9552 17.3893 5.82621L19.4762 3.73929C19.6052 3.6103 19.7832 3.5303 19.9802 3.5303C20.3742 3.5303 20.6931 3.84929 20.6931 4.24327C20.6931 4.44027 20.6131 4.61826 20.4842 4.74725L18.3972 6.83417C18.2682 6.96316 18.0903 7.04316 17.8933 7.04316C17.6963 7.04316 17.5183 6.96316 17.3893 6.83417ZM3.51686 4.74925C3.38786 4.62026 3.30787 4.44227 3.30787 4.24527C3.30787 3.85129 3.62685 3.5323 4.02084 3.5323C4.21783 3.5323 4.39582 3.6123 4.52482 3.74129L6.61173 5.82821C6.74073 5.9572 6.82072 6.13519 6.82072 6.33219C6.82072 6.72617 6.50173 7.04516 6.10775 7.04516C5.91076 7.04516 5.73277 6.96516 5.60377 6.83617L3.51686 4.74925ZM11.2865 3.89029V0.939411C11.2865 0.545427 11.6055 0.22644 11.9995 0.22644C12.3935 0.22644 12.7125 0.545427 12.7125 0.939411V3.89129C12.7125 4.28527 12.3935 4.60426 11.9995 4.60426C11.6055 4.60426 11.2865 4.28427 11.2865 3.89029Z" fill="#ffffff"/>
<path fill-rule="evenodd" clip-rule="evenodd" d="M12.1711 13.7507C12.3136 13.7507 12.4503 13.8073 12.551 13.9081L16.8419 18.1989H23.4627C23.7594 18.1989 24 18.4395 24 18.7362C24 19.033 23.7594 19.2735 23.4627 19.2735H16.6193C16.4768 19.2735 16.3401 19.2169 16.2394 19.1162L12.1711 15.0479L8.10282 19.1162C8.00205 19.2169 7.86538 19.2735 7.72288 19.2735H0.537313C0.240563 19.2735 0 19.033 0 18.7362C0 18.4395 0.240563 18.1989 0.537313 18.1989H7.50031L11.7911 13.9081C11.8919 13.8073 12.0286 13.7507 12.1711 13.7507Z" fill="#ffffff"/>
<path fill-rule="evenodd" clip-rule="evenodd" d="M12 9.15142C9.2662 9.15142 7.05001 11.3676 7.05001 14.1014C7.05001 14.4742 6.7478 14.7764 6.37501 14.7764C6.00222 14.7764 5.70001 14.4742 5.70001 14.1014C5.70001 10.622 8.52062 7.80142 12 7.80142C15.4794 7.80142 18.3 10.622 18.3 14.1014C18.3 14.4742 17.9978 14.7764 17.625 14.7764C17.2522 14.7764 16.95 14.4742 16.95 14.1014C16.95 11.3676 14.7338 9.15142 12 9.15142Z" fill="#ffffff"/>
</svg>
