<svg width="24" height="22" viewBox="0 0 24 22" fill="none" xmlns="http://www.w3.org/2000/svg">
<path d="M7.70964 17.6286C7.70964 17.1202 8.12182 16.708 8.63018 16.708C9.13854 16.708 9.55072 17.1202 9.55072 17.6286C9.55255 19.0163 10.6774 20.1411 12.065 20.1429C13.7293 20.1411 15.0785 18.7918 15.0804 17.1275C15.0776 15.1463 13.4719 13.5406 11.4907 13.5397H0.92054C0.412182 13.5397 0 13.1275 0 12.6192C0 12.1108 0.412182 11.6986 0.92054 11.6986H11.4907C14.4877 11.7023 16.9169 14.1314 16.9205 17.1285C16.916 19.8086 14.7451 21.9794 12.0659 21.984C9.66155 21.9812 7.7133 20.0339 7.70964 17.6295V17.6286ZM12.9324 10.2872C12.4241 10.2872 12.0119 9.87497 12.0119 9.36661C12.0119 8.85825 12.4241 8.44607 12.9324 8.44607H18.5711C20.5532 8.44333 22.1589 6.83765 22.1598 4.85551C22.158 3.19121 20.8088 1.842 19.1445 1.84016C17.7568 1.842 16.632 2.9668 16.6302 4.35448C16.6302 4.86283 16.218 5.27502 15.7096 5.27502C15.2013 5.27502 14.7891 4.86283 14.7891 4.35448C14.7928 1.95008 16.741 0.00274788 19.1445 0C21.8246 0.0045798 23.9954 2.17541 24 4.85459C23.9963 7.85253 21.5672 10.2817 18.5702 10.2853L12.9324 10.2872ZM0.92054 10.2872C0.412182 10.2872 0 9.87497 0 9.36661C0 8.85825 0.412182 8.44607 0.92054 8.44607H6.56103C8.54225 8.44333 10.1479 6.83765 10.1488 4.85551C10.1452 3.19121 8.79689 1.84383 7.1335 1.842C5.74582 1.84383 4.62102 2.96863 4.61919 4.35631C4.61919 4.86467 4.20701 5.27685 3.69865 5.27685C3.19029 5.27685 2.77811 4.86467 2.77811 4.35631C2.78086 1.95191 4.7291 0.00274788 7.1335 0C9.8136 0.0045798 11.9844 2.17541 11.989 4.85459C11.9853 7.85345 9.55439 10.2835 6.55553 10.2853L0.92054 10.2872Z" fill="#ffffff"/>
</svg>
