<svg width="31" height="32" viewBox="0 0 31 32" fill="none" xmlns="http://www.w3.org/2000/svg">
<path d="M20.2105 15.1579V5.05263L15.1579 0L10.1053 5.05263V8.42105H0V32H30.3158V15.1579H20.2105ZM6.73684 28.6316H3.36842V25.2632H6.73684V28.6316ZM6.73684 21.8947H3.36842V18.5263H6.73684V21.8947ZM6.73684 15.1579H3.36842V11.7895H6.73684V15.1579ZM16.8421 28.6316H13.4737V25.2632H16.8421V28.6316ZM16.8421 21.8947H13.4737V18.5263H16.8421V21.8947ZM16.8421 15.1579H13.4737V11.7895H16.8421V15.1579ZM16.8421 8.42105H13.4737V5.05263H16.8421V8.42105ZM26.9474 28.6316H23.5789V25.2632H26.9474V28.6316ZM26.9474 21.8947H23.5789V18.5263H26.9474V21.8947Z" fill='#8B8EA5'/>
</svg>
