<svg width="25" height="32" viewBox="0 0 25 32" fill="none" xmlns="http://www.w3.org/2000/svg">
<path d="M21.3333 10.6667H19.8095V7.61905C19.8095 3.41333 16.3962 0 12.1905 0C7.98476 0 4.57143 3.41333 4.57143 7.61905V10.6667H3.04762C1.37143 10.6667 0 12.0381 0 13.7143V28.9524C0 30.6286 1.37143 32 3.04762 32H21.3333C23.0095 32 24.381 30.6286 24.381 28.9524V13.7143C24.381 12.0381 23.0095 10.6667 21.3333 10.6667ZM12.1905 24.381C10.5143 24.381 9.14286 23.0095 9.14286 21.3333C9.14286 19.6571 10.5143 18.2857 12.1905 18.2857C13.8667 18.2857 15.2381 19.6571 15.2381 21.3333C15.2381 23.0095 13.8667 24.381 12.1905 24.381ZM16.9143 10.6667H7.46667V7.61905C7.46667 5.01333 9.58476 2.89524 12.1905 2.89524C14.7962 2.89524 16.9143 5.01333 16.9143 7.61905V10.6667Z" fill="black"/>
</svg>
