<svg width="24" height="24" viewBox="0 0 24 24" fill="#8B8EA5" xmlns="http://www.w3.org/2000/svg">
<path d="M11.289 23.287V20.335C11.289 19.941 11.608 19.622 12.002 19.622C12.396 19.622 12.715 19.941 12.715 20.335V23.287C12.715 23.681 12.396 24 12.002 24C11.608 24 11.289 23.681 11.289 23.287ZM19.479 20.483L17.392 18.397C17.256 18.267 17.172 18.084 17.172 17.882C17.172 17.488 17.491 17.169 17.885 17.169C18.087 17.169 18.27 17.253 18.4 17.389L20.485 19.478C20.592 19.602 20.657 19.764 20.657 19.942C20.657 20.336 20.338 20.655 19.944 20.655C19.765 20.655 19.601 20.589 19.476 20.48L19.477 20.481L19.479 20.483ZM3.517 20.483C3.388 20.354 3.308 20.176 3.308 19.979C3.308 19.782 3.388 19.604 3.517 19.475L5.604 17.388C5.733 17.259 5.911 17.179 6.108 17.179C6.502 17.179 6.821 17.498 6.821 17.892C6.821 18.089 6.741 18.267 6.612 18.396L4.525 20.482C4.396 20.611 4.218 20.691 4.021 20.691C3.824 20.691 3.646 20.611 3.517 20.482V20.483ZM6.32 11.998C6.32 8.86 8.864 6.315 12.003 6.315C15.142 6.315 17.686 8.859 17.686 11.998C17.686 15.136 15.142 17.681 12.003 17.681C8.865 17.681 6.32 15.137 6.32 11.998ZM7.745 11.998C7.745 14.35 9.652 16.257 12.004 16.257C14.356 16.257 16.263 14.35 16.263 11.998C16.263 9.646 14.356 7.739 12.004 7.739C9.652 7.739 7.745 9.646 7.745 11.998ZM20.336 12.711C19.942 12.711 19.623 12.392 19.623 11.998C19.623 11.604 19.942 11.285 20.336 11.285H23.288C23.682 11.285 24.001 11.604 24.001 11.998C24.001 12.392 23.682 12.711 23.288 12.711H20.336ZM0.713 12.711C0.319 12.711 0 12.392 0 11.998C0 11.604 0.319 11.285 0.713 11.285H3.666C4.06 11.285 4.379 11.604 4.379 11.998C4.379 12.392 4.06 12.711 3.666 12.711H0.713ZM17.39 6.608C17.261 6.479 17.181 6.301 17.181 6.104C17.181 5.907 17.261 5.729 17.39 5.6L19.477 3.513C19.606 3.384 19.784 3.304 19.981 3.304C20.375 3.304 20.694 3.623 20.694 4.017C20.694 4.214 20.614 4.392 20.485 4.521L18.398 6.608C18.269 6.737 18.091 6.817 17.894 6.817C17.697 6.817 17.519 6.737 17.39 6.608ZM5.602 6.608L3.517 4.523C3.388 4.394 3.308 4.216 3.308 4.019C3.308 3.625 3.627 3.306 4.021 3.306C4.218 3.306 4.396 3.386 4.525 3.515L6.612 5.602C6.741 5.731 6.821 5.909 6.821 6.106C6.821 6.5 6.502 6.819 6.108 6.819C5.911 6.819 5.733 6.739 5.604 6.61L5.602 6.608ZM11.287 3.664V0.713C11.287 0.319 11.606 0 12 0C12.394 0 12.713 0.319 12.713 0.713V3.665C12.713 4.059 12.394 4.378 12 4.378C11.606 4.378 11.287 4.059 11.287 3.665V3.664Z" fill="#8B8EA5"/>
</svg>
