<svg width="32" height="21" viewBox="0 0 32 21" fill="none" xmlns="http://www.w3.org/2000/svg">
<path d="M6.29331 9.96337H6.3048C7.37843 9.96337 8.36394 10.3388 9.13684 10.9661L9.12822 10.9594C9.27571 11.0782 9.4663 11.151 9.67317 11.151C9.94804 11.151 10.1932 11.0245 10.3532 10.8263L10.3541 10.8244C10.4729 10.6769 10.5457 10.4863 10.5457 10.2794C10.5457 10.0046 10.4183 9.75937 10.22 9.59943L10.2181 9.59847C9.7019 9.18377 9.10332 8.84377 8.45397 8.60721L8.40991 8.59284C9.64061 6.79133 11.6825 5.62289 13.9974 5.61619H13.9983C17.7019 5.61906 20.7073 8.60817 20.7351 12.305V12.3079C19.9497 12.4468 19.2601 12.782 18.696 13.2609L18.7018 13.2561C18.5141 13.417 18.3953 13.6545 18.3953 13.9207C18.3953 14.1353 18.4729 14.3316 18.6012 14.4839L18.6003 14.4829C18.7612 14.6707 18.9987 14.7894 19.2649 14.7894C19.4795 14.7894 19.6758 14.7118 19.8281 14.5835L19.8271 14.5845C20.2648 14.2119 20.8375 13.9859 21.462 13.9859C22.8603 13.9878 23.9943 15.1208 23.9962 16.5191C23.9952 17.9184 22.8612 19.0523 21.4629 19.0533H6.29235C3.78307 19.0504 1.74979 17.0162 1.74692 14.5069C1.75075 11.9986 3.78307 9.96624 6.29139 9.96337H6.29331ZM23.4292 1.81971C23.3459 2.08883 23.274 2.41542 23.2261 2.74967L23.2223 2.78511C23.1821 3.05998 23.1591 3.37795 23.1591 3.70071C23.1591 7.04609 25.6291 9.81492 28.8452 10.2842L28.8816 10.288C29.1603 10.3292 29.4811 10.3532 29.8077 10.3532H29.8671H29.8642C28.9209 12.3031 27.0159 13.6545 24.7825 13.7943L24.7652 13.7953C24.1887 13.1028 23.4072 12.5991 22.5155 12.375L22.4858 12.3683V12.352C22.4849 9.48929 21.0655 6.95894 18.8924 5.42464L18.8656 5.40644C19.6768 3.53023 21.3633 2.16832 23.3947 1.82545L23.4301 1.82066L23.4292 1.81971ZM6.29331 20.7973H21.4639C23.8257 20.7944 25.7393 18.8809 25.7412 16.5191C25.7393 16.1398 25.6885 15.773 25.5946 15.4234L25.6013 15.4531C28.7466 14.9427 31.2329 12.6115 31.9665 9.59464L31.977 9.54101C31.9914 9.48163 32 9.41363 32 9.34371C32 9.11481 31.9119 8.90602 31.7673 8.74991L31.7682 8.75087C31.6083 8.57848 31.3813 8.47121 31.1285 8.47121C31.0815 8.47121 31.0365 8.47504 30.9915 8.48174L30.9963 8.48079L30.6496 8.53442C30.3948 8.58135 30.1008 8.60817 29.801 8.60817C29.5597 8.60817 29.3231 8.59093 29.0913 8.55741L29.1182 8.56028C26.719 8.21358 24.8964 6.17168 24.8964 3.70454C24.8964 3.4651 24.9137 3.23046 24.9462 2.99964L24.9434 3.0255C25.0334 2.39531 25.2297 1.82737 25.5151 1.31498L25.5027 1.33988C25.5812 1.21633 25.6291 1.06596 25.6329 0.905064V0.904106C25.6329 0.897402 25.6329 0.888783 25.6329 0.880163C25.6329 0.414701 25.268 0.0344786 24.8093 0.0105351H24.8074C24.6877 0.00383096 24.5469 0 24.4061 0C21.281 0 18.5859 1.84652 17.3542 4.50712L17.3341 4.55501C16.3534 4.12211 15.2089 3.87023 14.006 3.87023C14.0031 3.87023 14.0002 3.87023 13.9974 3.87023C10.8263 3.87789 8.06417 5.61619 6.60266 8.19059L6.58063 8.23273C6.48294 8.22794 6.38621 8.22028 6.28852 8.22028C2.81671 8.22411 0.00383096 11.038 0 14.5088C0.00383096 17.9806 2.81671 20.7944 6.28852 20.7992L6.29331 20.7973Z" fill="black"/>
</svg>
