<svg width="33" height="32" viewBox="0 0 33 32" fill="none" xmlns="http://www.w3.org/2000/svg">
<path d="M5.81159 26.5939C5.79276 26.5939 5.77017 26.5939 5.74851 26.5939C2.57393 26.5939 0 24.02 0 20.8454C0 17.6708 2.57393 15.0969 5.74851 15.0969H5.81536H5.81159C5.90009 15.0969 5.98953 15.1035 6.07802 15.1082C7.42807 12.7122 9.95587 11.1211 12.8555 11.1211C14.0776 11.1211 15.2337 11.4036 16.2617 11.9072L16.2156 11.8875C16.7475 11.3132 17.3924 10.8537 18.1164 10.5412L18.1531 10.5271C18.7961 10.2474 19.5455 10.0846 20.3335 10.0846C23.4234 10.0846 25.9276 12.5888 25.9276 15.6787C25.9276 17.797 24.7499 19.6403 23.0138 20.5903L22.9846 20.6053C23.364 21.1966 23.5891 21.9177 23.5891 22.6916C23.5891 24.8475 21.8417 26.5948 19.6858 26.5948C19.6839 26.5948 19.6811 26.5948 19.6792 26.5948L5.81159 26.5939ZM1.65696 20.8444C1.65978 23.1378 3.51821 24.9963 5.81159 24.9991H19.6811C20.9596 24.9991 21.9961 23.9625 21.9961 22.6831C21.9961 21.4037 20.9596 20.3671 19.6801 20.3671C19.1096 20.3671 18.5871 20.5733 18.1832 20.916L18.187 20.9132C18.0477 21.0365 17.8622 21.1118 17.6598 21.1118C17.2201 21.1118 16.8633 20.755 16.8633 20.3153C16.8633 20.0668 16.9772 19.8437 17.1561 19.6978L17.158 19.6968C17.6683 19.2637 18.2981 18.9578 18.9919 18.8344L19.0155 18.8307C18.9929 15.448 16.2448 12.715 12.8584 12.715C10.7401 12.715 8.87132 13.7854 7.76322 15.4141L7.7491 15.4358C8.38176 15.6646 8.92874 15.9753 9.41265 16.3631L9.40135 16.3547C9.58776 16.5015 9.70544 16.7275 9.70544 16.9807C9.70544 17.4204 9.34863 17.7772 8.90897 17.7772C8.71786 17.7772 8.54181 17.7094 8.40435 17.5974L8.40624 17.5983C7.70768 17.0316 6.80671 16.6879 5.82571 16.6879C5.82195 16.6879 5.81818 16.6879 5.81442 16.6879H5.81536C3.52009 16.6889 1.65978 18.5492 1.6579 20.8435L1.65696 20.8444ZM18.7735 11.9948C18.3244 12.1906 17.9394 12.4467 17.608 12.7602L17.6099 12.7583C19.442 14.1884 20.6094 16.3961 20.6103 18.8768C20.6103 18.8812 20.6103 18.8862 20.6103 18.8919C21.0622 19.0048 21.4595 19.1809 21.8154 19.4153L21.8003 19.4059C23.2925 18.8024 24.3253 17.3658 24.3253 15.6872C24.3253 13.5529 22.6542 11.8093 20.55 11.6926H20.5397C20.465 11.6882 20.3903 11.686 20.3156 11.686C20.3128 11.686 20.31 11.686 20.3062 11.686C19.7536 11.686 19.2273 11.7999 18.749 12.0042L18.7745 11.9948H18.7735ZM27.0084 24.3297L25.1048 22.2114C24.9768 22.0702 24.8986 21.8829 24.8986 21.6757C24.8986 21.2361 25.2554 20.8793 25.6951 20.8793C25.9314 20.8793 26.1442 20.9828 26.2901 21.1467L26.291 21.1476L28.1946 23.2687C28.3227 23.4099 28.4008 23.5973 28.4008 23.8044C28.4008 24.244 28.044 24.6008 27.6044 24.6008C27.368 24.6008 27.1553 24.4973 27.0094 24.3335L27.0084 24.3325V24.3297ZM31.163 17.0711L28.317 16.9167C27.8962 16.8932 27.5629 16.5458 27.5629 16.1212C27.5629 15.6806 27.9197 15.3238 28.3603 15.3238C28.3754 15.3238 28.3905 15.3238 28.4055 15.3247H28.4036L31.2497 15.4791C31.6695 15.5045 32 15.851 32 16.2746C32 16.7134 31.646 17.0692 31.2073 17.0711H31.163ZM25.7214 10.8387C25.5953 10.6984 25.5181 10.512 25.5181 10.3068C25.5181 10.0714 25.6198 9.85957 25.7826 9.71364L25.7836 9.7127L27.9047 7.80908C28.045 7.68293 28.2323 7.60573 28.4366 7.60573C28.8772 7.60573 29.2349 7.96348 29.2349 8.40408C29.2349 8.64039 29.1323 8.85221 28.9695 8.99908L28.9685 9.00002L26.8465 10.9065C26.7062 11.0326 26.5189 11.1098 26.3146 11.1098C26.0792 11.1098 25.8683 11.0081 25.7224 10.8462L25.7214 10.8453V10.8387ZM14.3543 10.223L12.4517 8.10094C12.3236 7.95972 12.2455 7.77237 12.2455 7.56525C12.2455 7.12559 12.6023 6.76878 13.042 6.76878C13.2783 6.76878 13.491 6.87234 13.637 7.03615L13.6379 7.03709L15.5387 9.16195C15.6667 9.30317 15.7449 9.49052 15.7449 9.69764C15.7449 10.1373 15.3881 10.4941 14.9484 10.4941C14.7121 10.4941 14.4993 10.3905 14.3534 10.2267L14.3525 10.2258L14.3543 10.223ZM20.7157 8.4408C20.2949 8.41726 19.9616 8.06987 19.9616 7.64527C19.9616 7.62927 19.9616 7.6142 19.9626 7.5982V7.60008L20.117 4.75313C20.1405 4.3323 20.4879 3.99902 20.9125 3.99902C21.3531 3.99902 21.7099 4.35583 21.7099 4.79643C21.7099 4.8115 21.7099 4.82656 21.709 4.84162V4.83974L21.5546 7.6867C21.531 8.10753 21.1836 8.4408 20.759 8.4408H20.7157Z" fill="#8B8EA5"/>
</svg>
