<svg width="32" height="32" viewBox="0 0 32 32" fill="#8B8EA5" xmlns="http://www.w3.org/2000/svg">
<path d="M9.183 27.765C9.037 27.619 8.947 27.418 8.947 27.196C8.947 26.974 9.037 26.772 9.183 26.627L13.349 22.462C13.496 22.309 13.702 22.214 13.93 22.214C14.375 22.214 14.735 22.574 14.735 23.019C14.735 23.247 14.64 23.454 14.487 23.6L10.322 27.766C10.176 27.912 9.975 28.002 9.753 28.002C9.531 28.002 9.329 27.912 9.184 27.766L9.183 27.765ZM17.658 23.825C17.512 23.679 17.422 23.478 17.422 23.256C17.422 23.034 17.512 22.833 17.658 22.687L20.717 19.631H12.217L8.019 23.826C7.873 23.972 7.672 24.062 7.45 24.062C7.005 24.062 6.645 23.702 6.645 23.257C6.645 23.035 6.735 22.833 6.881 22.688L9.941 19.628H9.87C9.851 19.628 9.828 19.628 9.806 19.628C6.6 19.628 4 17.029 4 13.822C4 10.615 6.599 8.016 9.806 8.016H9.873H9.87C9.96 8.016 10.05 8.023 10.139 8.027C11.503 5.607 14.056 4 16.985 4C21.31 4 24.817 7.506 24.817 11.831C24.817 11.8357 24.817 11.8407 24.817 11.846C26.557 12.283 27.825 13.833 27.825 15.679C27.825 17.859 26.058 19.625 23.879 19.625H22.995L18.797 23.823C18.651 23.969 18.45 24.059 18.228 24.059C18.006 24.059 17.805 23.969 17.659 23.823L17.658 23.825ZM5.673 13.821C5.675 16.138 7.553 18.015 9.869 18.018H23.873C25.165 18.018 26.211 16.971 26.211 15.679C26.211 14.387 25.164 13.34 23.872 13.34C23.295 13.34 22.768 13.549 22.36 13.894L22.363 13.891C22.223 14.01 22.041 14.083 21.841 14.083C21.396 14.083 21.035 13.722 21.035 13.277C21.035 13.031 21.145 12.811 21.318 12.664L21.319 12.663C21.834 12.226 22.471 11.916 23.171 11.792L23.195 11.788C23.166 8.376 20.393 5.62 16.977 5.62C14.841 5.62 12.957 6.697 11.838 8.337L11.824 8.358C12.463 8.589 13.016 8.903 13.504 9.295L13.493 9.286C13.681 9.435 13.8 9.663 13.8 9.919C13.8 10.364 13.44 10.724 12.995 10.724C12.802 10.724 12.624 10.656 12.485 10.542L12.486 10.543C11.78 9.97 10.87 9.624 9.88 9.624C9.876 9.624 9.872 9.624 9.869 9.624H9.87C7.552 9.625 5.673 11.503 5.671 13.821H5.673Z"/>
</svg>
