<svg width="32" height="32" viewBox="0 0 32 32" fill="none" xmlns="http://www.w3.org/2000/svg">
<path d="M9.86385 13.6776H9.88079C10.8808 13.6776 11.7989 14.027 12.519 14.6108L12.511 14.6045C12.6483 14.715 12.8256 14.7828 13.0182 14.7828C13.274 14.7828 13.5021 14.6642 13.651 14.4797L13.6519 14.478C13.7624 14.3407 13.8301 14.1633 13.8301 13.9708C13.8301 13.715 13.7116 13.4868 13.5271 13.338L13.5253 13.3371C13.044 12.9503 12.4852 12.6321 11.88 12.4119L11.839 12.3986C12.9861 10.7158 14.8908 9.62395 17.0513 9.61771H17.0522C20.506 9.62216 23.3082 12.4093 23.3358 15.8577V15.8604C22.6041 15.9896 21.9606 16.3016 21.4338 16.749L21.4391 16.7445C21.2636 16.8943 21.153 17.1153 21.153 17.3631C21.153 17.5627 21.2252 17.7455 21.3447 17.8872L21.3438 17.8863C21.4935 18.0619 21.7146 18.1724 21.9623 18.1724C22.162 18.1724 22.3447 18.1002 22.4855 17.9808L22.4846 17.9817C22.8937 17.6349 23.4267 17.4237 24.0097 17.4237C25.3145 17.4246 26.3725 18.4826 26.3743 19.7874C26.3725 21.0923 25.3154 22.1503 24.0097 22.152H9.86385C7.5233 22.1494 5.62662 20.2527 5.62395 17.913C5.63019 15.5751 7.52598 13.6829 9.86385 13.6802V13.6776ZM9.86385 23.7804H24.0123C26.2129 23.7769 27.9964 21.9943 28 19.7937C27.9955 17.93 26.7156 16.3666 24.9874 15.9308L24.9598 15.9245V15.9085C24.9562 11.542 21.4178 8.00357 17.0522 8C14.0957 8.00535 11.519 9.62573 10.1562 12.0251L10.1357 12.0643C10.0448 12.0599 9.95388 12.0527 9.86296 12.0527C6.62666 12.0563 4.00446 14.6785 4 17.9139C4.00357 21.1502 6.62577 23.7733 9.86207 23.7769L9.86385 23.7804Z" fill="black"/>
</svg>
