<svg width="24" height="22" viewBox="0 0 24 22" fill="#8B8EA5" xmlns="http://www.w3.org/2000/svg">
<path d="M17.0273 0.809833L15.7683 2.97974L14.5854 0.932828C14.3274 0.492845 12.7345 1.41881 12.9925 1.85579L14.7064 4.82867L12.0075 9.50147L9.30861 4.82867L11.0195 1.85579C11.2775 1.41581 9.6706 0.489847 9.42661 0.932828L8.24366 2.98074L6.98471 0.810833C6.72672 0.370851 5.13379 1.29681 5.39177 1.73379L6.65072 3.90371L4.28382 3.90371C3.76784 3.90371 3.76784 5.75463 4.28382 5.75463L7.72768 5.75463L10.4266 10.4274L5.02979 10.4274L3.31586 7.45456C3.05787 7.01457 1.46494 7.94054 1.72293 8.37752L2.88988 10.4134L0.386983 10.4134C-0.128995 10.4134 -0.128995 12.2644 0.386983 12.2644L2.88988 12.2644L1.70593 14.3123C1.44794 14.7523 3.05487 15.6782 3.29886 15.2352L5.01279 12.2624L10.3986 12.2624L7.69968 16.9352L4.28482 16.9352C3.76884 16.9352 3.76884 18.7861 4.28482 18.7861L6.65072 18.7861L5.39178 20.96C5.13379 21.4 6.74072 22.3259 6.98471 21.883L8.24366 19.713L9.42661 21.761C9.6846 22.2009 11.2775 21.275 11.0195 20.838L9.30561 17.8651L12.0215 13.1923L14.7204 17.8651L13.0065 20.838C12.7485 21.278 14.3554 22.2039 14.5994 21.761L15.7823 19.713L17.0443 21.883C17.3023 22.3229 18.8952 21.397 18.6372 20.96L17.3783 18.7901L19.7452 18.7901C20.2612 18.7901 20.2612 16.9392 19.7452 16.9392L16.2983 16.9392L13.5994 12.2664L18.9852 12.2664L20.7011 15.2372C20.9591 15.6772 22.5521 14.7513 22.2941 14.3143L21.1111 12.2664L23.613 12.2664C24.129 12.2664 24.129 10.4154 23.613 10.4154L21.1101 10.4154L22.2931 8.36752C22.5511 7.92754 20.9441 7.00157 20.7001 7.44456L18.9862 10.4174L13.6164 10.4174L16.3153 5.74463L19.7592 5.74463C20.2752 5.74463 20.2752 3.8937 19.7592 3.8937L17.3943 3.8937L18.6532 1.72379C18.8802 1.27981 17.2873 0.369851 17.0303 0.809833L17.0273 0.809833Z" fill="#8B8EA5"/>
</svg>
